<svg width="0" height="0" class="hidden">
  <symbol xmlns="http://www.w3.org/2000/svg" viewBox="0 0 14 16" id="instagram-icon">
    <path fill="#efebe4" d="M2.5-.001h9a2.5 2.5 0 0 1 2.5 2.5v11a2.5 2.5 0 0 1-2.5 2.5h-9A2.5 2.5 0 0 1 0 13.5v-11A2.5 2.5 0 0 1 2.5 0zm-1.5 9v4a2 2 0 0 0 2 2h8a2 2 0 0 0 2-2v-6h-1v.267a2.015 2.015 0 0 0-.025-.013c.015.163.023.329.023.496 0 2.898-2.238 5.247-4.998 5.247-2.76 0-4.998-2.35-4.998-5.247 0-.167.008-.333.022-.496L2 7.266V7H1v2zm2.004-1.002a4 4 0 0 0 3.996 4 3.998 3.998 0 0 0 3.995-4A3.998 3.998 0 0 0 7 3.996a3.998 3.998 0 0 0-3.996 4zM10 3.999h2v-2h-2z"></path>
  </symbol>
  <symbol xmlns="http://www.w3.org/2000/svg" viewBox="0 0 16 13" id="twitter-icon">
    <path fill="#efebe4" d="M16 1.495l-1.5 1.497v.25c0 .273-.044.534-.108.787-.035 2.059-.693 4.79-3.392 6.944-5.31 4.237-11 .498-11 .498 4.5 0 4.5-1.497 4.5-1.497-1 0-3-1.994-3-1.994.5.498 1.5 0 1.5 0C.5 6.483.5 4.987.5 4.987c.5.498 1.5 0 1.5 0-2.5-1.995-1-4.49-1-4.49.5 2.495 7 3.492 7 3.492l.083-.041C8.03 3.72 8 3.235 8 2.992c0-1.79 1.455-2.993 3.25-2.993.988 0 1.862.45 2.458 1.143L14 .996 15.5 0l-1 1.995z"></path>
  </symbol>
  <symbol xmlns="http://www.w3.org/2000/svg" viewBox="0 0 8 15" id="facebook-icon">
    <path fill="#efebe4" d="M3 15V8H0V6h3V3C3 .66 4.182.003 6.229.003c.98 0 1.496.107 1.742.14V2.51H6.235C5.122 2.511 5 4.209 5 5v1h3l-.5 2H5v7z"></path>
  </symbol>
  <symbol xmlns="http://www.w3.org/2000/svg" viewBox="0 0 138.937 43.281" id="logo-gustoso">
    <path d="M13.071 25.964q.9-.24 2.88-.675t5.07-1.005q.51-1.2 1.26-2.775t1.71-3.615a1.39 1.39 0 0 0 .15-.45c0-.04-.01-.06-.03-.06a2.286 2.286 0 0 0-.36.24q-1.89 1.35-3.975 2.61a50.806 50.806 0 0 1-4.485 2.4 34.688 34.688 0 0 1-5.28 2.055 16.69 16.69 0 0 1-4.26.7 7.168 7.168 0 0 1-2.28-.225 5.94 5.94 0 0 1-1.8-.825 3.9 3.9 0 0 1-1.68-3.42 7.7 7.7 0 0 1 .09-1.14 6.6 6.6 0 0 1 .3-1.2q1.92-5.91 10.44-10.68 8.25-4.59 15.54-4.14a5.113 5.113 0 0 1 3.3 1.38 6.494 6.494 0 0 1 1.86 2.97.58.58 0 0 1 .09.3.108.108 0 0 1-.15.12.366.366 0 0 1-.21-.24 5.6 5.6 0 0 0-.54-1 7.375 7.375 0 0 0-.63-.8 5.714 5.714 0 0 0-3.63-1.59q-.33-.03-.66-.03h-.66a29.555 29.555 0 0 0-14.61 4.32q-7.77 4.41-9.48 9.54a8.263 8.263 0 0 0-.45 2.46 2.981 2.981 0 0 0 1.245 2.595 6.719 6.719 0 0 0 3.795.915 15.98 15.98 0 0 0 4.77-.8 40.139 40.139 0 0 0 6.21-2.565q2.91-1.44 4.905-2.685a18.54 18.54 0 0 0 3.045-2.255q.03-.03.15-.18a19.479 19.479 0 0 1 1.92-3.75l.585-.51.825-.72a.246.246 0 0 1 .15-.09q.18 0 .24.39a1.528 1.528 0 0 1-.03.69 6.744 6.744 0 0 1-1.35 2.97.538.538 0 0 1-.24.1 3.953 3.953 0 0 0-.42.135q-.21.36-.945 1.815t-2.055 4.07a3.821 3.821 0 0 1 .84 1.62 4.648 4.648 0 0 1-.39.525q-.24.285-.51.615-.18.09-1.53.48-4.08 7.32-6.81 9.09a10.335 10.335 0 0 1-5.07 2.1 5.125 5.125 0 0 1-3.54-1.02 3.219 3.219 0 0 1-1.17-2.58 4.172 4.172 0 0 1 1.14-2.82q1.77-1.95 6.72-3.36zm5.01-.63q-1.71.42-3.18.81t-2.73.84a17.414 17.414 0 0 0-5.43 2.85 3.416 3.416 0 0 0-1.23 2.55 2.446 2.446 0 0 0 1.02 1.98 5.922 5.922 0 0 0 3.33.75 8.166 8.166 0 0 0 4.92-1.89q2.58-2.04 5.97-8.49zm4.65-2.64q-.3.57-.66 1.35a2.2 2.2 0 0 0 .5-.2q.255-.135.585-.315a1.056 1.056 0 0 0 .39-.84 1.165 1.165 0 0 0-.33-.99q-.185.425-.485.995zm23.37-3.48q-.51.9-.975 1.845t-.825 1.845a7.041 7.041 0 0 0-.45 1.5 1.861 1.861 0 0 0-.015.78.382.382 0 0 0 .225.285.693.693 0 0 0 .375-.015q.225-.06.435-.12a3.868 3.868 0 0 0 .51-.2 3.379 3.379 0 0 0 .48-.255q.48-.33.525-.075a.7.7 0 0 1-.315.585 3.782 3.782 0 0 1-.735.615 4.388 4.388 0 0 1-.825.435.628.628 0 0 1-.45-.06 1.635 1.635 0 0 1-.5-.345 2.453 2.453 0 0 1-.39-.51 1.153 1.153 0 0 1-.165-.585 5.734 5.734 0 0 1 .135-1.2 10.185 10.185 0 0 1 .345-1.23q.21-.6.465-1.185t.465-1.095a.787.787 0 0 0 0-.735q-.18-.285-.72.255-.72.72-1.875 1.815t-2.325 2.16q-1.17 1.065-2.175 1.89a5.444 5.444 0 0 1-1.48.98 1.182 1.182 0 0 1-1.32-.255 1.568 1.568 0 0 1-.45-1.275 6.657 6.657 0 0 1 .375-1.59 13.843 13.843 0 0 1 .81-1.845q.5-.945 1.08-1.92t1.185-1.845q.6-.87 1.125-1.575t.915-1.155a.809.809 0 0 1 .405-.255.731.731 0 0 1 .435-.015.3.3 0 0 1 .21.255.856.856 0 0 1-.24.555q-.69.84-1.455 1.95t-1.455 2.25q-.69 1.14-1.245 2.22a9.459 9.459 0 0 0-.765 1.89 1.646 1.646 0 0 0 .015 1.575.928.928 0 0 0 1.125-.075 16.993 16.993 0 0 0 2.475-1.905q1.305-1.185 2.58-2.475t2.445-2.52q1.17-1.23 2.07-2.04a.444.444 0 0 1 .48-.18.658.658 0 0 1 .33.345 1.435 1.435 0 0 1 .135.54.773.773 0 0 1-.075.435q-.42.63-.93 1.53zm19.11 2.13a34.735 34.735 0 0 1 4.53-1.11l.03.03a24.468 24.468 0 0 0-4.305 1.3 36.763 36.763 0 0 0-4.6 2.265 5.343 5.343 0 0 1 .555.855 1.4 1.4 0 0 1 .165.555q0 .84-1.98 1.68a7.145 7.145 0 0 1-2.73.75 1.994 1.994 0 0 1-.63-.09q-.422.06-.675.12a.69.69 0 0 1-.405 0q-.39-.03-.18-.39a29.767 29.767 0 0 1 4.045-3.085l-.96-1.29a3.523 3.523 0 0 1-.5-.81 3.16 3.16 0 0 1-.225-.81q-.242-2.01 4.08-4.53a20.032 20.032 0 0 1 4.065-1.905 11.05 11.05 0 0 1 3.585-.585.431.431 0 0 1 .33.18.341.341 0 0 1 0 .39 2.423 2.423 0 0 1-.675.6.983.983 0 0 1-.675.24 8.49 8.49 0 0 0-1.17-.33 4.541 4.541 0 0 0-.81-.09c-.12 0-.236.005-.345.015a3.068 3.068 0 0 0-.315.045 12.3 12.3 0 0 0-3.96 2.01q-2.852 1.95-2.64 3.42a4.4 4.4 0 0 0 .66 1.53 3.745 3.745 0 0 0 1.02 1.11 25.626 25.626 0 0 1 4.715-2.07zm-8.58 6a3.9 3.9 0 0 0 1.83-.33c.4-.16.735-.3 1-.42a1.213 1.213 0 0 0 .555-.42.522.522 0 0 0 .12-.33 1.7 1.7 0 0 0-.69-1.11q-.482.3-1.47 1.02c-.4.28-.72.52-.96.72a2.413 2.413 0 0 0-.51.54c-.161.18-.12.29.12.33zm16.05 14.13a3.925 3.925 0 0 1-1.02-1.965 12.6 12.6 0 0 1-.21-2.385q0-4.23 3.45-12.12 1.53-3.48 3.06-6.27a57.982 57.982 0 0 1 3.06-5.01 1.286 1.286 0 0 0 .36-.9.925.925 0 0 0-.54-.84q-1.08-.42-.84-.93a1.331 1.331 0 0 1 .885-.27 21.148 21.148 0 0 1 2.235-.09c.079 0 .09-.03.03-.09a.13.13 0 0 1-.03-.18 42.185 42.185 0 0 1 3.33-4.485q1.89-2.235 3.96-4.635a6.524 6.524 0 0 1 1.68-.78q.72-.24 1.035-.375a1.7 1.7 0 0 1 .675-.135.269.269 0 0 1 .33.27.338.338 0 0 1-.3.21q-2.822.57-9.33 9.51-.482.69.21.69h4.35q1.769 0 2.745.015t1.215.015a.521.521 0 0 1 .36.09 1.023 1.023 0 0 1-.165.315.581.581 0 0 1-.435.285q-1.71.06-3.915.2t-5.025.285a1.041 1.041 0 0 0-.75.48q-1.591 2.34-3 4.65t-2.76 5.01a71.711 71.711 0 0 0-3.27 7.785 26.574 26.574 0 0 0-1.44 6.285c-.021.26-.03.5-.03.72v.72q0 5.22 3.69 5.22a8.183 8.183 0 0 0 2.34-.39 14.1 14.1 0 0 0 3.75-1.89 23.638 23.638 0 0 0 3.78-3.36 21.939 21.939 0 0 0 3.045-3.87 9.57 9.57 0 0 0 1.305-3.42q0-2.82-2.01-2.49a1.891 1.891 0 0 0-.78.27 1.107 1.107 0 0 1-.48.21q-.3 0-.24-.27a1.327 1.327 0 0 1 .435-.42 8.306 8.306 0 0 1 1.065-.51 1.575 1.575 0 0 1 .36-.03 2.362 2.362 0 0 1 1.83 1.29 3.732 3.732 0 0 1 .84 2.04q-.6 3.96-5.73 8.61a25.189 25.189 0 0 1-4.875 3.54 9.183 9.183 0 0 1-4.275 1.2 5.009 5.009 0 0 1-3.96-1.8zm16.35-14.415a1.393 1.393 0 0 1-.435-.225 1.427 1.427 0 0 1-.33-.36.816.816 0 0 1-.135-.45q.06-2.49 4.02-7.35.12-.21-.06-.27a5.328 5.328 0 0 1-.54-.345.385.385 0 0 1-.18-.615 1.16 1.16 0 0 1 .78-.18l1.14-.03a.736.736 0 0 0 .33-.12 2.082 2.082 0 0 1 1.32-.66 2.521 2.521 0 0 1 1.35.54 1.074 1.074 0 0 1 .1.06.9.9 0 0 0 .105.06q.69.03 1.665.06t2.235.06a.758.758 0 0 1 .45.12q0 .18-.45.18a1.476 1.476 0 0 0-1.2.36.15.15 0 0 0 0 .18l.06.18a.5.5 0 0 1 .03.15 5.162 5.162 0 0 1-.975 2.445 14.87 14.87 0 0 1-2.68 2.835q-3.51 3.03-6.15 3.42a1.027 1.027 0 0 1-.45-.045zm-.15-.885q0 .72.96.54 2.04-.33 4.89-2.94 3-2.67 3.45-4.86.21-.9-1.14-1.05a5.587 5.587 0 0 0-1.35-.015 4.8 4.8 0 0 0-1.17.285 1.269 1.269 0 0 0-.51.27 20.249 20.249 0 0 0-4.95 7.11 1.369 1.369 0 0 0-.18.66zm27.45-4.83a34.774 34.774 0 0 1 4.53-1.11l.03.03a24.494 24.494 0 0 0-4.305 1.3 36.831 36.831 0 0 0-4.6 2.265 5.206 5.206 0 0 1 .555.855 1.386 1.386 0 0 1 .165.555q0 .84-1.98 1.68a7.136 7.136 0 0 1-2.73.75 1.994 1.994 0 0 1-.63-.09q-.42.06-.675.12a.691.691 0 0 1-.4 0q-.39-.03-.18-.39a29.914 29.914 0 0 1 4.05-3.09l-.96-1.29a3.6 3.6 0 0 1-.5-.81 3.243 3.243 0 0 1-.225-.81q-.24-2.01 4.08-4.53a20.057 20.057 0 0 1 4.065-1.905 11.058 11.058 0 0 1 3.585-.585.429.429 0 0 1 .33.18.337.337 0 0 1 0 .39 2.394 2.394 0 0 1-.675.6.98.98 0 0 1-.675.24 8.413 8.413 0 0 0-1.17-.33 4.522 4.522 0 0 0-.81-.09c-.12 0-.235.005-.345.015a3.149 3.149 0 0 0-.315.045 12.3 12.3 0 0 0-3.96 2.01q-2.85 1.95-2.64 3.42a4.416 4.416 0 0 0 .66 1.53 3.758 3.758 0 0 0 1.02 1.11 25.656 25.656 0 0 1 4.705-2.065zm-8.58 6a3.9 3.9 0 0 0 1.83-.33q.6-.24 1-.42a1.207 1.207 0 0 0 .555-.42.516.516 0 0 0 .12-.33 1.694 1.694 0 0 0-.69-1.11q-.48.3-1.47 1.02-.6.42-.96.72a2.436 2.436 0 0 0-.51.54q-.24.27.12.33zm19.38-.285a1.382 1.382 0 0 1-.435-.225 1.409 1.409 0 0 1-.33-.36.816.816 0 0 1-.135-.45q.06-2.49 4.02-7.35c.079-.14.06-.23-.06-.27a5.328 5.328 0 0 1-.54-.345.385.385 0 0 1-.18-.615 1.158 1.158 0 0 1 .78-.18l1.14-.03a.74.74 0 0 0 .33-.12 2.079 2.079 0 0 1 1.32-.66 2.527 2.527 0 0 1 1.35.54 1.074 1.074 0 0 1 .105.06.826.826 0 0 0 .105.06q.69.03 1.665.06t2.235.06a.758.758 0 0 1 .45.12q0 .18-.45.18a1.476 1.476 0 0 0-1.2.36.147.147 0 0 0 0 .18l.06.18a.527.527 0 0 1 .03.15 5.173 5.173 0 0 1-.975 2.445 14.87 14.87 0 0 1-2.685 2.835q-3.51 3.03-6.15 3.42a1.027 1.027 0 0 1-.45-.045zm-.15-.885q0 .72.96.54 2.04-.33 4.89-2.94 3-2.67 3.45-4.86.208-.9-1.14-1.05a5.587 5.587 0 0 0-1.35-.015 4.8 4.8 0 0 0-1.17.285 1.263 1.263 0 0 0-.51.27 20.223 20.223 0 0 0-4.95 7.11 1.369 1.369 0 0 0-.18.66z"
      fill="#fff" fill-rule="evenodd"></path>
  </symbol>
  <symbol xmlns="http://www.w3.org/2000/svg" width="20" height="20" id="star-empty">
  <path fill="#fff" d="M13.209 7.826l-3.21-5.924-3.208 5.924a.63.63 0 01-.626.297H2.127l3.897 3.897a.64.64 0 01.215.664l-1.403 5.188 4.669-3.316a.667.667 0 01.495-.17.667.667 0 01.495.17l4.668 3.316-1.402-5.188a.64.64 0 01.214-.664l3.898-3.897h-4.038a.63.63 0 01-.626-.297zm-8.984 11.99a.632.632 0 01-.123.088.653.653 0 01-.865-.171.574.574 0 01-.123-.353.638.638 0 01.022-.192l1.766-6.534L.235 7.987a.626.626 0 01-.199-.279.62.62 0 01.64-.834h5.22L9.436.34a.625.625 0 01.672-.337.625.625 0 01.456.337l3.54 6.534h5.22a.619.619 0 01.642.828.626.626 0 01-.202.285l-4.667 4.667 1.767 6.534a.638.638 0 01.022.192.574.574 0 01-.123.353.653.653 0 01-.866.17.632.632 0 01-.122-.088L10 15.715z"/>
</symbol>
<symbol xmlns="http://www.w3.org/2000/svg" width="21" height="20" id="star-filled">
  <path fill="#fff" d="M10.488.015l3.183 6.574 7.116 1.054-5.15 5.116 1.217 7.224-6.365-3.411-6.365 3.411 1.215-7.224L.19 7.643l7.117-1.054z"/>
</symbol>
<symbol xmlns="http://www.w3.org/2000/svg" width="9" height="16" id="roll-btn">
  <path fill="#d8bba3" d="M0 0h1v16H0zm4 0h1v16H4zm4 0h1v16H8z"/>
</symbol>
</svg>